<svg width="32" height="33" viewBox="0 0 32 33" fill="none" xmlns="http://www.w3.org/2000/svg">
<path d="M16.0001 12.8008C15.4652 12.7636 14.9286 12.8415 14.4264 13.0294C13.9242 13.2172 13.4681 13.5106 13.089 13.8897C12.7099 14.2689 12.4165 14.7249 12.2286 15.2271C12.0408 15.7293 11.9629 16.266 12.0001 16.8008C11.9629 17.3357 12.0408 17.8724 12.2286 18.3746C12.4165 18.8768 12.7099 19.3328 13.089 19.7119C13.4681 20.0911 13.9242 20.3845 14.4264 20.5723C14.9286 20.7602 15.4652 20.8381 16.0001 20.8008C16.535 20.8381 17.0716 20.7602 17.5738 20.5723C18.076 20.3845 18.5321 20.0911 18.9112 19.7119C19.2903 19.3328 19.5837 18.8768 19.7716 18.3746C19.9594 17.8724 20.0374 17.3357 20.0001 16.8008C20.0374 16.266 19.9594 15.7293 19.7716 15.2271C19.5837 14.7249 19.2903 14.2689 18.9112 13.8897C18.5321 13.5106 18.076 13.2172 17.5738 13.0294C17.0716 12.8415 16.535 12.7636 16.0001 12.8008ZM16.0001 18.8008C15.7294 18.8345 15.4546 18.8059 15.1967 18.7173C14.9387 18.6286 14.7044 18.4823 14.5115 18.2895C14.3186 18.0966 14.1723 17.8622 14.0837 17.6043C13.9951 17.3463 13.9665 17.0715 14.0001 16.8008C13.9665 16.5302 13.9951 16.2554 14.0837 15.9974C14.1723 15.7394 14.3186 15.5051 14.5115 15.3122C14.7044 15.1194 14.9387 14.973 15.1967 14.8844C15.4546 14.7958 15.7294 14.7672 16.0001 14.8008C16.2708 14.7672 16.5456 14.7958 16.8035 14.8844C17.0615 14.973 17.2959 15.1194 17.4887 15.3122C17.6816 15.5051 17.8279 15.7394 17.9165 15.9974C18.0052 16.2554 18.0337 16.5302 18.0001 16.8008C18.0337 17.0715 18.0052 17.3463 17.9165 17.6043C17.8279 17.8622 17.6816 18.0966 17.4887 18.2895C17.2959 18.4823 17.0615 18.6286 16.8035 18.7173C16.5456 18.8059 16.2708 18.8345 16.0001 18.8008Z" fill="#1E1919"/>
<path d="M24.0001 16.8008C24.0001 16.6008 23.9935 16.4008 23.9801 16.1841L25.8321 13.8308L23.4888 9.77078L20.8368 10.1528C20.3821 9.84758 19.8944 9.59486 19.3828 9.39945L18.3441 6.80078H13.6561L12.6168 9.40078C12.1053 9.5962 11.6175 9.84892 11.1628 10.1541L8.51081 9.77211L6.16748 13.8321L8.01948 16.1854C8.00615 16.3988 7.99948 16.6034 7.99948 16.8021C7.99948 17.0008 8.00615 17.2021 8.01948 17.4188L6.16748 19.7721L8.51081 23.8321L11.1628 23.4501C11.6175 23.7553 12.1053 24.008 12.6168 24.2034L13.6561 26.8008H18.3435L19.3828 24.2008C19.8944 24.0054 20.3821 23.7526 20.8368 23.4474L23.4888 23.8294L25.8321 19.7694L23.9801 17.4161C23.9935 17.2008 24.0001 17.0008 24.0001 16.8008ZM21.9575 15.9681C21.9835 16.2348 22.0001 16.5134 22.0001 16.8008C22.0001 17.0881 21.9828 17.3641 21.9575 17.6334L21.9195 18.0334L23.4235 19.9448L22.4335 21.6581L20.3001 21.3514L19.9668 21.6114C19.4715 21.9885 18.9136 22.2753 18.3188 22.4588L17.8668 22.6008L16.9895 24.8008H15.0108L14.1335 22.6008L13.6841 22.4574C13.0893 22.274 12.5315 21.9871 12.0361 21.6101L11.7028 21.3501L9.56948 21.6568L8.57948 19.9434L10.0835 18.0321L10.0455 17.6321C10.0175 17.3641 10.0001 17.0881 10.0001 16.8008C10.0001 16.5134 10.0175 16.2374 10.0428 15.9681L10.0808 15.5681L8.57681 13.6568L9.56681 11.9434L11.7001 12.2501L12.0335 11.9901C12.5288 11.6131 13.0867 11.3263 13.6815 11.1428L14.1335 11.0008L15.0108 8.80078H16.9901L17.8668 11.0008L18.3161 11.1441C18.911 11.3276 19.4688 11.6144 19.9641 11.9914L20.2975 12.2514L22.4308 11.9448L23.4208 13.6581L21.9168 15.5694L21.9575 15.9681Z" fill="#1E1919"/>
</svg>
