<svg xmlns="http://www.w3.org/2000/svg" xmlns:xlink="http://www.w3.org/1999/xlink" width="1024" zoomAndPan="magnify" viewBox="0 0 768 767.999994" height="1024" preserveAspectRatio="xMidYMid meet" version="1.0"><defs><clipPath id="165181f97c"><path d="M 218 433 L 549 433 L 549 627.332031 L 218 627.332031 Z M 218 433 " clip-rule="nonzero"/></clipPath></defs><path fill="#0160fe" d="M 279.132812 516.125 C 280.957031 516.125 282.777344 515.214844 283.691406 514.304688 L 372.109375 437.738281 C 373.933594 435.914062 374.84375 434.089844 374.84375 432.265625 C 374.84375 430.445312 373.019531 427.710938 371.199219 426.796875 L 222.617188 339.292969 C 219.882812 337.46875 217.148438 338.382812 214.414062 340.203125 L 122.347656 414.949219 C 120.523438 416.773438 119.613281 418.59375 120.523438 421.328125 C 120.523438 423.152344 122.347656 425.886719 124.171875 426.796875 L 276.398438 516.125 Z M 219.882812 353.875 L 355.703125 434.089844 L 278.222656 500.632812 L 138.757812 419.507812 Z M 219.882812 353.875 " fill-opacity="1" fill-rule="nonzero"/><path fill="#0160fe" d="M 651.949219 239.9375 L 493.34375 142.40625 C 490.609375 140.582031 487.875 141.492188 485.140625 143.316406 L 385.78125 226.265625 C 384.871094 227.175781 383.957031 228.085938 383.957031 229 C 383.957031 228.085938 383.046875 227.175781 382.136719 226.265625 L 281.867188 143.316406 C 280.042969 141.492188 276.398438 141.492188 273.664062 142.40625 L 115.96875 239.9375 C 114.144531 240.847656 113.234375 242.671875 112.320312 245.40625 C 112.320312 247.230469 113.234375 249.964844 115.054688 250.875 L 215.324219 332 C 216.238281 332.910156 218.058594 333.824219 219.882812 333.824219 C 220.792969 333.824219 222.617188 333.824219 223.527344 332.910156 L 381.222656 236.292969 C 382.136719 235.378906 383.957031 234.46875 383.957031 232.644531 C 384.871094 234.46875 385.78125 235.378906 386.691406 236.292969 L 544.390625 332.910156 C 547.125 334.734375 549.859375 333.824219 552.59375 332 L 652.863281 250.875 C 654.683594 249.050781 655.597656 247.230469 655.597656 245.40625 C 654.683594 243.582031 653.773438 240.847656 651.949219 239.9375 Z M 219.882812 319.238281 L 131.464844 247.230469 L 277.308594 157.902344 L 365.726562 230.820312 Z M 548.035156 319.238281 L 402.191406 229.910156 L 490.609375 156.988281 L 636.453125 246.316406 Z M 548.035156 319.238281 " fill-opacity="1" fill-rule="nonzero"/><path fill="#0160fe" d="M 554.414062 338.382812 C 552.59375 336.558594 548.945312 336.558594 546.210938 337.46875 L 397.632812 427.710938 C 395.808594 428.621094 394.898438 430.445312 393.984375 433.179688 C 393.984375 435 394.898438 437.734375 396.71875 438.648438 L 485.140625 515.214844 C 486.050781 516.125 487.875 517.039062 489.695312 517.039062 C 490.609375 517.039062 492.429688 517.039062 493.34375 516.125 L 645.570312 426.796875 C 647.390625 425.886719 648.304688 424.0625 649.214844 421.328125 C 649.214844 419.507812 648.304688 416.769531 646.480469 415.859375 Z M 489.695312 501.542969 L 412.214844 435 L 548.945312 352.054688 L 629.160156 419.507812 Z M 489.695312 501.542969 " fill-opacity="1" fill-rule="nonzero"/><g clip-path="url(#165181f97c)"><path fill="#0160fe" d="M 541.65625 489.691406 C 538.007812 489.691406 534.363281 492.425781 534.363281 496.984375 L 534.363281 521.597656 L 389.429688 610.011719 L 389.429688 440.472656 C 389.429688 436.824219 386.695312 433.179688 382.136719 433.179688 C 377.578125 433.179688 374.84375 435.914062 374.84375 440.472656 L 374.84375 610.011719 L 232.644531 521.597656 L 232.644531 496.984375 C 232.644531 493.339844 229.910156 489.691406 225.351562 489.691406 C 220.792969 489.691406 218.058594 492.425781 218.058594 496.984375 L 218.058594 525.242188 C 218.058594 527.976562 218.972656 529.800781 221.707031 530.710938 L 373.933594 623.6875 C 374.84375 624.597656 376.667969 624.597656 377.578125 624.597656 L 378.488281 624.597656 C 379.402344 626.421875 381.222656 627.332031 383.957031 627.332031 C 386.695312 627.332031 387.605469 626.421875 389.429688 624.597656 L 390.339844 624.597656 C 391.25 624.597656 393.074219 624.597656 393.984375 623.6875 L 545.300781 530.710938 C 547.125 529.800781 548.945312 527.066406 548.945312 525.242188 L 548.945312 496.984375 C 548.945312 493.339844 546.210938 489.691406 541.65625 489.691406 Z M 541.65625 489.691406 " fill-opacity="1" fill-rule="nonzero"/></g></svg>