<svg width="24" height="25" viewBox="0 0 24 25" fill="none" xmlns="http://www.w3.org/2000/svg">
<path d="M16.9767 9.30022C17.3044 8.97169 17.4885 8.52659 17.4885 8.06256C17.4885 7.59851 17.3044 7.15341 16.9767 6.82488C16.9766 6.82482 16.9766 6.82477 16.9765 6.82472L16.5988 6.4465C16.5987 6.44644 16.5987 6.44637 16.5986 6.44631C16.2701 6.11861 15.825 5.93457 15.361 5.93457C14.897 5.93457 14.452 6.11853 14.1235 6.4461L16.9767 9.30022ZM16.9767 9.30022C16.9766 9.30027 16.9766 9.30033 16.9765 9.30039L9.97804 16.2949L6.57248 16.849L7.12658 13.4435L14.1231 6.4465L16.9767 9.30022ZM14.8814 6.52881L15.0729 6.99067L14.8814 6.52881C14.7296 6.59175 14.5917 6.684 14.4756 6.80028L13.6794 7.5965L13.3234 7.95252L13.6819 8.30606L15.1319 9.73606L15.4854 10.0847L15.8365 9.73361L16.6234 8.94672C16.7396 8.83064 16.8317 8.6928 16.8946 8.54109C16.9574 8.38939 16.9898 8.22677 16.9898 8.06256C16.9898 7.89834 16.9574 7.73573 16.8946 7.58401C16.8317 7.43236 16.7396 7.29457 16.6235 7.1785C16.6235 7.17846 16.6234 7.17843 16.6234 7.17839L16.2453 6.80028C16.2452 6.80023 16.2452 6.80017 16.2451 6.80011C16.2451 6.80007 16.2451 6.80004 16.245 6.8C16.1283 6.68318 15.9898 6.59133 15.839 6.52881C15.6872 6.46586 15.5245 6.43347 15.3602 6.43347C15.1959 6.43347 15.0332 6.46586 14.8814 6.52881ZM7.70842 13.57L7.59437 13.684L7.56846 13.8432L7.28896 15.5607L7.17743 16.2461L7.86278 16.1346L9.58028 15.8551L9.73936 15.8292L9.85338 15.7153L14.7764 10.7963L15.1327 10.4402L14.7741 10.0866L13.3241 8.65656L12.9705 8.3079L12.6194 8.659L7.70842 13.57ZM5.5 19.4236H18.5V19.9236H5.5V19.4236Z" fill="#1E1919" stroke="#1E1919"/>
</svg>
