<svg width="25" height="25" viewBox="0 0 25 25" fill="none" xmlns="http://www.w3.org/2000/svg">
<path d="M4.3335 6.42383V14.6738C4.3335 15.2706 4.57055 15.8429 4.99251 16.2648C5.41446 16.6868 5.98676 16.9238 6.5835 16.9238H11.3335V18.4238H8.8335V19.9238H15.3335V18.4238H12.8335V16.9238H17.5835C18.1802 16.9238 18.7525 16.6868 19.1745 16.2648C19.5964 15.8429 19.8335 15.2706 19.8335 14.6738V6.42383H4.3335ZM18.3335 14.6738C18.3335 14.8727 18.2545 15.0635 18.1138 15.2042C17.9732 15.3448 17.7824 15.4238 17.5835 15.4238H6.5835C6.38458 15.4238 6.19382 15.3448 6.05317 15.2042C5.91251 15.0635 5.8335 14.8727 5.8335 14.6738V7.92383H18.3335V14.6738Z" fill="#1A1918"/>
<path d="M13.8335 9.92383H10.3335V13.4238H13.8335V9.92383Z" fill="#1A1918"/>
</svg>
