<svg width="24" height="25" viewBox="0 0 24 25" fill="none" xmlns="http://www.w3.org/2000/svg">
<path d="M7 4.92383V20.9238H17.5V4.92383H7ZM16 19.4238H8.5V6.42383H16V19.4238Z" fill="#1A1918"/>
<path d="M12.25 17.9238C12.4176 17.9373 12.5861 17.9143 12.7439 17.8562C12.9017 17.7982 13.045 17.7066 13.1639 17.5877C13.2827 17.4688 13.3744 17.3255 13.4324 17.1677C13.4904 17.0099 13.5135 16.8414 13.5 16.6738C13.5135 16.5062 13.4904 16.3377 13.4324 16.1799C13.3744 16.0222 13.2827 15.8789 13.1639 15.76C13.045 15.6411 12.9017 15.5495 12.7439 15.4914C12.5861 15.4334 12.4176 15.4103 12.25 15.4238C12.0824 15.4103 11.9139 15.4334 11.7561 15.4914C11.5983 15.5495 11.455 15.6411 11.3362 15.76C11.2173 15.8789 11.1256 16.0222 11.0676 16.1799C11.0096 16.3377 10.9865 16.5062 11 16.6738C10.9865 16.8414 11.0096 17.0099 11.0676 17.1677C11.1256 17.3255 11.2173 17.4688 11.3362 17.5877C11.455 17.7066 11.5983 17.7982 11.7561 17.8562C11.9139 17.9143 12.0824 17.9373 12.25 17.9238Z" fill="#1A1918"/>
</svg>
